<?xml version="1.0" encoding="utf-8"?>
<!-- Generator: Adobe Illustrator 22.0.0, SVG Export Plug-In . SVG Version: 6.00 Build 0)  -->
<svg version="1.1" id="e547938f-82f5-44e4-b157-d028021b2880"
	 xmlns="http://www.w3.org/2000/svg" xmlns:xlink="http://www.w3.org/1999/xlink" x="0px" y="0px" viewBox="0 0 1053.5 823.2"
	 style="enable-background:new 0 0 1053.5 823.2;" xml:space="preserve">
<style type="text/css">
	.st0{fill:#F2F2F2;}
	.st1{fill:#00BFA6;}
	.st2{fill:#3F3D56;}
	.st3{fill:#323145;}
	.st4{display:none;fill:#3F3D56;}
	.st5{opacity:0.2;enable-background:new    ;}
	.st6{fill:#D0CDE1;}
</style>
<title>personal_notebook</title>
<path class="st0" d="M385.8,792.5c-163-46-334.7-95.3-378-293.7S156.5-78.7,229,74.3C302,228.5,489.3,318,607,368
	C964.7,520.3,802.9,910.3,385.8,792.5z"/>
<path class="st0" d="M386.3,791C298,766,205.9,741.1,130.6,686.5c-37.4-27.1-68.8-61.9-90.5-102.7C18.5,543.1,6,498.4,3.6,452.5
	c-2-40.7,2.9-81.8,11.2-121.7c8.7-41.7,21.2-82.5,37.3-122c14.3-35.2,31.2-69.7,52.4-101.3c15.1-22.7,33.4-46.7,57.8-60.1
	c17.8-9.8,37-9.3,51.4,6.1c11.4,12.3,17.1,28.9,25.2,43.2c12.4,21.8,26.8,42.3,43.1,61.3c64.8,76.3,152.7,130.4,241.8,174
	c19.6,9.6,39.5,18.7,59.5,27.5c20.3,8.9,40.7,17.3,60.3,27.7c35.9,19,69.7,42.8,97.4,72.8c42.8,46.3,69.5,108.5,59.5,172.1
	c-9.6,60.8-50.3,110.9-102.8,141c-71.5,41-158.3,46.2-238,34C434.9,803.2,410.3,797.8,386.3,791c-0.9-0.2-1.7,0.3-2,1.2
	c-0.2,0.9,0.3,1.6,1.1,2c48,13.5,97.8,21.9,147.8,21.9c40.5,0,81.4-5.7,119.8-19.2c31.7-11.1,61.7-27.7,86.8-50.1
	c22.3-19.9,40.5-44.6,52.1-72.2c11.1-26.8,15.8-55.8,13.4-84.7c-2.5-31-12.9-60.9-28.5-87.7c-18.6-31.6-44.3-58.5-73.3-80.7
	c-17.4-13.3-35.8-25.2-55.2-35.5c-20.2-10.9-41.3-19.6-62.2-28.8c-42.8-18.7-85-39-125.6-62.2c-45.3-25.8-88.9-55.2-127.9-90
	c-39.2-35-73.9-75.7-97.8-122.7c-10-19.7-21.7-44.1-47.2-45.2c-22.2-1-42.2,16.2-56.5,31.3c-23.4,24.6-41.5,54.5-57.1,84.5
	c-19,37.5-34.7,76.6-46.7,116.8c-12.5,41-21.6,83.1-25.5,125.8c-3.7,40.3-2.1,80.7,8.4,119.9c12.5,47.4,35,91.7,67.8,128.2
	c30.3,33.9,68.2,60,108.6,80.5c42,21.4,86.9,36.9,131.9,50.7c22.2,6.8,44.7,13.1,67,19.4c0.9,0.2,1.7-0.3,2-1.2
	C387.6,792,387,791.2,386.3,791z"/>
<path class="st1" d="M714,166.3c0,73.2-43.5,98.8-97.2,98.9c-1.2,0-2.5,0-3.7,0c-2.5,0-4.9-0.2-7.4-0.3
	c-48.5-3.4-86.2-30.3-86.2-98.4c0-70.5,90-159.5,96.7-166.1l0,0c0.2-0.2,0.4-0.3,0.4-0.3S714,93.1,714,166.3z"/>
<path class="st2" d="M613.3,254l35.5-49.7l-35.5,55.1l-0.1,5.7c-2.5,0-4.9-0.2-7.4-0.3l3.8-73.3V191l0.1-0.1l0.3-7l-35.7-55.2
	l35.8,50.1l0.1,1.4l2.8-55.3l-30.6-57.1l31,47.4l2.9-114.8v-0.4v0.3L616,90.7l30.4-35.9l-30.6,43.7L615,148l28.4-47.6l-28.5,54.9
	l-0.4,27.6l41.3-66.2l-41.4,75.8L613.3,254z"/>
<path class="st3" d="M719.7,154.4H254.9v668.8h464.8c12.7,0,23.2-10.3,23.2-23.2l0,0V177.6C742.9,164.8,732.6,154.4,719.7,154.4
	L719.7,154.4z M280,811.2c-6.6,0-12-5.3-12-12c0-6.6,5.3-12,12-12c6.6,0,12,5.3,12,12C291.9,805.9,286.6,811.2,280,811.2L280,811.2
	L280,811.2z M280,769.8c-6.6,0-12-5.3-12-12c0-6.6,5.3-12,12-12c6.6,0,12,5.3,12,12C291.9,764.5,286.6,769.8,280,769.8L280,769.8
	L280,769.8z M280,728.4c-6.6,0-12-5.3-12-12s5.3-12,12-12c6.6,0,12,5.3,12,12S286.6,728.4,280,728.4L280,728.4L280,728.4z M280,687
	c-6.6,0-12-5.3-12-12s5.3-12,12-12c6.6,0,12,5.3,12,12S286.6,687,280,687L280,687L280,687z M280,645.6c-6.6,0-12-5.3-12-12
	c0-6.6,5.3-12,12-12c6.6,0,12,5.3,12,12C291.9,640.3,286.6,645.6,280,645.6L280,645.6L280,645.6z M280,604.2c-6.6,0-12-5.3-12-12
	s5.3-12,12-12c6.6,0,12,5.3,12,12S286.6,604.2,280,604.2L280,604.2L280,604.2z M280,562.9c-6.6,0-12-5.3-12-12s5.3-12,12-12
	c6.6,0,12,5.3,12,12S286.6,562.9,280,562.9L280,562.9L280,562.9z M280,521.5c-6.6,0-12-5.3-12-12c0-6.6,5.3-12,12-12
	c6.6,0,12,5.3,12,12C291.9,516.1,286.6,521.5,280,521.5L280,521.5L280,521.5z M280,480.1c-6.6,0-12-5.3-12-12c0-6.6,5.3-12,12-12
	c6.6,0,12,5.3,12,12C291.9,474.7,286.6,480.1,280,480.1L280,480.1L280,480.1z M280,438.7c-6.6,0-12-5.3-12-12c0-6.6,5.3-12,12-12
	c6.6,0,12,5.3,12,12S286.6,438.7,280,438.7L280,438.7L280,438.7z M280,397.3c-6.6,0-12-5.3-12-12c0-6.6,5.3-12,12-12
	c6.6,0,12,5.3,12,12C291.9,391.9,286.6,397.3,280,397.3L280,397.3L280,397.3z M280,355.9c-6.6,0-12-5.3-12-12c0-6.6,5.3-12,12-12
	c6.6,0,12,5.3,12,12S286.6,355.9,280,355.9L280,355.9L280,355.9z M280,314.5c-6.6,0-12-5.3-12-12c0-6.6,5.3-12,12-12
	c6.6,0,12,5.3,12,12C291.9,309.2,286.6,314.5,280,314.5L280,314.5L280,314.5z M280,273.1c-6.6,0-12-5.3-12-12c0-6.6,5.3-12,12-12
	c6.6,0,12,5.3,12,12C291.9,267.8,286.6,273.1,280,273.1L280,273.1L280,273.1z M280,231.7c-6.6,0-12-5.3-12-12s5.3-12,12-12
	c6.6,0,12,5.3,12,12S286.6,231.7,280,231.7L280,231.7L280,231.7z M280,190.3c-6.6,0-12-5.3-12-12c0-6.6,5.3-12,12-12
	c6.6,0,12,5.3,12,12C291.9,185,286.6,190.3,280,190.3L280,190.3L280,190.3z"/>
<path d="M257.1,591.2c-4.7,0-28.3-0.2-28.3-4.9c0-4.2,20-4.8,26.1-4.9v2.2c-13.3,0.1-21.9,1.6-23.7,2.7c2,1.2,11.5,2.7,25.9,2.7
	c13.7,0,23.1-1.4,25.6-2.6c-1.2-0.4-4-1.1-11.3-2l0.2-2.2c12.7,1.5,13.7,2.6,13.7,4C285.4,591,261.8,591.2,257.1,591.2z"/>
<path d="M257.1,601c-4.7,0-28.3-0.2-28.3-4.9c0-4.2,20-4.8,26.1-4.9v2.2c-13.3,0.1-21.9,1.6-23.7,2.7c2,1.2,11.5,2.7,25.9,2.7
	c13.4,0,22.7-1.3,25.4-2.5c-2.5-0.7-8.6-1.4-12.1-1.7l-2.3-0.2l0.2-2.2l2.2,0.2c13.3,1.5,14.8,2.2,14.8,3.7
	C285.4,600.8,261.8,601,257.1,601z"/>
<path d="M257.1,550.9c-4.7,0-28.3-0.2-28.3-4.9c0-4.2,20-4.8,26.1-4.9v2.2c-13.3,0.1-21.9,1.6-23.7,2.7c2,1.2,11.5,2.7,25.9,2.7
	c13.7,0,23.1-1.4,25.6-2.6c-1.2-0.4-4-1.1-11.3-2l0.2-2.2c12.7,1.5,13.7,2.6,13.7,4C285.4,550.7,261.8,550.9,257.1,550.9z"/>
<path d="M257.1,560.7c-4.7,0-28.3-0.2-28.3-4.9c0-4.2,20-4.8,26.1-4.9v2.2c-13.3,0.1-21.9,1.6-23.7,2.7c2,1.2,11.5,2.7,25.9,2.7
	c13.4,0,22.7-1.3,25.4-2.5c-2.5-0.7-8.6-1.4-12.1-1.7l-2.3-0.2l0.2-2.2l2.2,0.2c13.3,1.5,14.8,2.2,14.8,3.7
	C285.4,560.5,261.8,560.7,257.1,560.7z"/>
<path d="M257.1,508.4c-4.7,0-28.3-0.2-28.3-4.9c0-4.2,20-4.8,26.1-4.9v2.2c-13.3,0.1-21.9,1.6-23.7,2.7c2,1.2,11.5,2.7,25.9,2.7
	c13.7,0,23.1-1.4,25.6-2.6c-1.2-0.4-4-1.1-11.3-2l0.2-2.2c12.7,1.5,13.7,2.6,13.7,4C285.4,508.2,261.8,508.4,257.1,508.4z"/>
<path d="M257.1,518.2c-4.7,0-28.3-0.2-28.3-4.9c0-4.2,20-4.8,26.1-4.9v2.2c-13.3,0.1-21.9,1.6-23.7,2.7c2,1.2,11.5,2.7,25.9,2.7
	c13.4,0,22.7-1.3,25.4-2.5c-2.5-0.7-8.6-1.4-12.1-1.7l-2.3-0.2l0.2-2.2l2.2,0.2c13.3,1.5,14.8,2.2,14.8,3.7
	C285.4,518,261.8,518.2,257.1,518.2z"/>
<path d="M257.1,467c-4.7,0-28.3-0.2-28.3-4.9c0-4.2,20-4.8,26.1-4.9v2.2c-13.3,0.1-21.9,1.6-23.7,2.7c2,1.2,11.5,2.7,25.9,2.7
	c13.7,0,23.1-1.4,25.6-2.6c-1.2-0.4-4-1.1-11.3-2l0.2-2.2c12.7,1.5,13.7,2.6,13.7,4C285.4,466.8,261.8,467,257.1,467z"/>
<path d="M257.1,476.8c-4.7,0-28.3-0.2-28.3-4.9c0-4.2,20-4.8,26.1-4.9v2.2c-13.3,0.1-21.9,1.6-23.7,2.7c2,1.2,11.5,2.7,25.9,2.7
	c13.4,0,22.7-1.3,25.4-2.5c-2.5-0.7-8.6-1.4-12.1-1.7l-2.3-0.2l0.2-2.2l2.2,0.2c13.3,1.5,14.8,2.2,14.8,3.7
	C285.4,476.6,261.8,476.8,257.1,476.8z"/>
<path d="M257.1,425.6c-4.7,0-28.3-0.2-28.3-4.9c0-4.2,20-4.8,26.1-4.9v2.2c-13.3,0.1-21.9,1.6-23.7,2.7c2,1.2,11.5,2.7,25.9,2.7
	c13.7,0,23.1-1.4,25.6-2.6c-1.2-0.4-4-1.1-11.3-2l0.2-2.2c12.7,1.5,13.7,2.6,13.7,3.9C285.4,425.4,261.8,425.6,257.1,425.6z"/>
<path d="M257.1,435.4c-4.7,0-28.3-0.2-28.3-4.9c0-4.2,20-4.8,26.1-4.9v2.2c-13.3,0.1-21.9,1.6-23.7,2.7c2,1.2,11.5,2.7,25.9,2.7
	c13.4,0,22.7-1.3,25.4-2.5c-2.5-0.7-8.6-1.4-12.1-1.7l-2.2-0.2l0.2-2.2l2.2,0.2c13.3,1.5,14.8,2.2,14.8,3.7
	C285.4,435.2,261.8,435.4,257.1,435.4z"/>
<path d="M257.1,384.2c-4.7,0-28.3-0.2-28.3-4.9c0-4.2,20-4.8,26.1-4.9v2.2c-13.3,0.1-21.9,1.6-23.7,2.7c2,1.2,11.5,2.7,25.9,2.7
	c13.7,0,23.1-1.4,25.6-2.6c-1.2-0.4-4-1.1-11.3-2l0.2-2.2c12.7,1.5,13.7,2.6,13.7,3.9C285.4,384,261.8,384.2,257.1,384.2z"/>
<path d="M257.1,394c-4.7,0-28.3-0.2-28.3-4.9c0-4.2,20-4.8,26.1-4.9v2.2c-13.3,0.1-21.9,1.6-23.7,2.7c2,1.2,11.5,2.7,25.9,2.7
	c13.4,0,22.7-1.3,25.4-2.5c-2.5-0.7-8.6-1.4-12.1-1.7l-2.2-0.2l0.2-2.2l2.2,0.2c13.3,1.5,14.8,2.2,14.8,3.7
	C285.4,393.8,261.8,394,257.1,394z"/>
<path d="M257.1,342.8c-4.7,0-28.3-0.2-28.3-4.9c0-4.2,20-4.8,26.1-4.9v2.2c-13.3,0.1-21.9,1.6-23.7,2.7c2,1.2,11.5,2.7,25.9,2.7
	c13.7,0,23.1-1.4,25.6-2.6c-1.2-0.4-4-1.1-11.3-2l0.2-2.2c12.7,1.5,13.7,2.6,13.7,3.9C285.4,342.6,261.8,342.8,257.1,342.8z"/>
<path d="M257.1,352.6c-4.7,0-28.3-0.2-28.3-4.9c0-4.2,20-4.8,26.1-4.9v2.2c-13.3,0.1-21.9,1.6-23.7,2.7c2,1.2,11.5,2.7,25.9,2.7
	c13.4,0,22.7-1.3,25.4-2.5c-2.5-0.7-8.6-1.4-12.1-1.7l-2.2-0.2l0.2-2.2l2.2,0.2c13.3,1.5,14.8,2.2,14.8,3.7
	C285.4,352.4,261.8,352.6,257.1,352.6z"/>
<path d="M257.1,301.4c-4.7,0-28.3-0.2-28.3-4.9c0-4.2,20-4.8,26.1-4.9v2.2c-13.3,0.1-21.9,1.6-23.7,2.7c2,1.2,11.5,2.7,25.9,2.7
	c13.7,0,23.1-1.4,25.6-2.6c-1.2-0.4-4-1.1-11.3-2l0.2-2.2c12.7,1.5,13.7,2.6,13.7,3.9C285.4,301.2,261.8,301.4,257.1,301.4z"/>
<path d="M257.1,311.2c-4.7,0-28.3-0.2-28.3-4.9c0-4.2,20-4.8,26.1-4.9v2.2c-13.3,0.1-21.9,1.6-23.7,2.7c2,1.2,11.5,2.7,25.9,2.7
	c13.4,0,22.7-1.3,25.4-2.5c-2.5-0.7-8.6-1.4-12.1-1.7l-2.2-0.2l0.2-2.2l2.2,0.2c13.3,1.5,14.8,2.2,14.8,3.7
	C285.4,311,261.8,311.2,257.1,311.2z"/>
<path d="M257.1,260c-4.7,0-28.3-0.2-28.3-4.9c0-4.2,20-4.8,26.1-4.9v2.2c-13.3,0.1-21.9,1.6-23.7,2.7c2,1.2,11.5,2.7,25.9,2.7
	c13.7,0,23.1-1.4,25.6-2.6c-1.2-0.4-4-1.1-11.3-2l0.2-2.2c12.7,1.5,13.7,2.6,13.7,3.9C285.4,259.8,261.8,260,257.1,260z"/>
<path d="M257.1,269.8c-4.7,0-28.3-0.2-28.3-4.9c0-4.2,20-4.8,26.1-4.9v2.2c-13.3,0.1-21.9,1.6-23.7,2.7c2,1.2,11.5,2.7,25.9,2.7
	c13.4,0,22.7-1.3,25.4-2.5c-2.5-0.7-8.6-1.4-12.1-1.7l-2.2-0.2l0.2-2.2l2.2,0.2c13.3,1.5,14.8,2.2,14.8,3.7
	C285.4,269.6,261.8,269.8,257.1,269.8z"/>
<path d="M257.1,218.6c-4.7,0-28.3-0.2-28.3-4.9c0-4.2,20-4.8,26.1-4.9v2.2c-13.3,0.1-21.9,1.6-23.7,2.7c2,1.2,11.5,2.7,25.9,2.7
	c13.7,0,23.1-1.4,25.6-2.6c-1.2-0.4-4-1.1-11.3-2l0.2-2.2c12.7,1.5,13.7,2.6,13.7,3.9C285.4,218.4,261.8,218.6,257.1,218.6z"/>
<path d="M257.1,228.4c-4.7,0-28.3-0.2-28.3-4.9c0-4.2,20-4.8,26.1-4.9v2.2c-13.3,0.1-21.9,1.6-23.7,2.7c2,1.2,11.5,2.7,25.9,2.7
	c13.4,0,22.7-1.3,25.4-2.5c-2.5-0.7-8.6-1.4-12.1-1.7l-2.2-0.2l0.2-2.2l2.2,0.2c13.3,1.5,14.8,2.2,14.8,3.7
	C285.4,228.2,261.8,228.4,257.1,228.4z"/>
<path d="M257.1,177.2c-4.7,0-28.3-0.2-28.3-4.9c0-4.2,20-4.8,26.1-4.9v2.2c-13.3,0.1-21.9,1.6-23.7,2.7c2,1.2,11.5,2.7,25.9,2.7
	c13.7,0,23.1-1.4,25.6-2.6c-1.2-0.4-4-1.1-11.3-2l0.2-2.2c12.7,1.5,13.7,2.6,13.7,3.9C285.4,177,261.8,177.2,257.1,177.2z"/>
<path d="M257.1,187c-4.7,0-28.3-0.2-28.3-4.9c0-4.2,20-4.8,26.1-4.9v2.2c-13.3,0.1-21.9,1.6-23.7,2.7c2,1.2,11.5,2.7,25.9,2.7
	c13.4,0,22.7-1.3,25.4-2.5c-2.5-0.7-8.6-1.4-12.1-1.7l-2.2-0.2l0.2-2.2l2.2,0.2c13.3,1.5,14.8,2.2,14.8,3.7
	C285.4,186.8,261.8,187,257.1,187z"/>
<path d="M257.1,633.7c-4.7,0-28.3-0.2-28.3-4.9c0-4.2,20-4.8,26.1-4.9v2.2c-13.3,0.1-21.9,1.6-23.7,2.7c2,1.2,11.5,2.7,25.9,2.7
	c13.7,0,23.1-1.4,25.6-2.6c-1.2-0.4-4-1.1-11.3-2l0.2-2.2c12.7,1.5,13.7,2.6,13.7,4C285.4,633.4,261.8,633.7,257.1,633.7z"/>
<path d="M257.1,643.5c-4.7,0-28.3-0.2-28.3-4.9c0-4.2,20-4.8,26.1-4.9v2.2c-13.3,0.1-21.9,1.6-23.7,2.7c2,1.2,11.5,2.7,25.9,2.7
	c13.4,0,22.7-1.3,25.4-2.5c-2.5-0.7-8.6-1.4-12.1-1.7l-2.3-0.2l0.2-2.2l2.2,0.2c13.3,1.5,14.8,2.2,14.8,3.7
	C285.4,643.2,261.8,643.5,257.1,643.5z"/>
<path d="M257.1,674c-4.7,0-28.3-0.2-28.3-4.9c0-4.2,20-4.8,26.1-4.9v2.2c-13.3,0.1-21.9,1.6-23.7,2.7c2,1.2,11.5,2.7,25.9,2.7
	c13.7,0,23.1-1.4,25.6-2.6c-1.2-0.4-4-1.1-11.3-2l0.2-2.2c12.7,1.5,13.7,2.6,13.7,4C285.4,673.7,261.8,674,257.1,674z"/>
<path d="M257.1,683.8c-4.7,0-28.3-0.2-28.3-4.9c0-4.2,20-4.8,26.1-4.9v2.2c-13.3,0.1-21.9,1.6-23.7,2.7c2,1.2,11.5,2.7,25.9,2.7
	c13.4,0,22.7-1.3,25.4-2.5c-2.5-0.7-8.6-1.4-12.1-1.7l-2.3-0.2l0.2-2.2l2.2,0.2c13.3,1.5,14.8,2.2,14.8,3.7
	C285.4,683.6,261.8,683.8,257.1,683.8z"/>
<path d="M257.1,716.4c-4.7,0-28.3-0.2-28.3-4.9c0-4.2,20-4.8,26.1-4.9v2.2c-13.3,0.1-21.9,1.6-23.7,2.7c2,1.2,11.5,2.7,25.9,2.7
	c13.7,0,23.1-1.4,25.6-2.6c-1.2-0.4-4-1.1-11.3-2l0.2-2.2c12.7,1.5,13.7,2.6,13.7,4C285.4,716.2,261.8,716.4,257.1,716.4z"/>
<path d="M257.1,726.3c-4.7,0-28.3-0.2-28.3-4.9c0-4.2,20-4.8,26.1-4.9v2.2c-13.3,0.1-21.9,1.6-23.7,2.7c2,1.2,11.5,2.7,25.9,2.7
	c13.4,0,22.7-1.3,25.4-2.5c-2.5-0.7-8.6-1.4-12.1-1.7l-2.3-0.2l0.2-2.2l2.2,0.2c13.3,1.5,14.8,2.2,14.8,3.7
	C285.4,726,261.8,726.3,257.1,726.3z"/>
<path d="M257.1,756.8c-4.7,0-28.3-0.2-28.3-4.9c0-4.2,20-4.8,26.1-4.9v2.2c-13.3,0.1-21.9,1.6-23.7,2.7c2,1.2,11.5,2.7,25.9,2.7
	c13.7,0,23.1-1.4,25.6-2.6c-1.2-0.4-4-1.1-11.3-2l0.2-2.2c12.7,1.5,13.7,2.6,13.7,4C285.4,756.5,261.8,756.8,257.1,756.8z"/>
<path d="M257.1,766.6c-4.7,0-28.3-0.2-28.3-4.9c0-4.2,20-4.8,26.1-4.9v2.2c-13.3,0.1-21.9,1.6-23.7,2.7c2,1.2,11.5,2.7,25.9,2.7
	c13.4,0,22.7-1.3,25.4-2.5c-2.5-0.7-8.6-1.4-12.1-1.7l-2.3-0.2l0.2-2.2l2.2,0.2c13.3,1.5,14.8,2.2,14.8,3.7
	C285.4,766.3,261.8,766.6,257.1,766.6z"/>
<path d="M257.1,798.1c-4.7,0-28.3-0.2-28.3-4.9c0-4.2,20-4.8,26.1-4.9v2.2c-13.3,0.1-21.9,1.6-23.7,2.7c2,1.2,11.5,2.7,25.9,2.7
	c13.7,0,23.1-1.4,25.6-2.6c-1.2-0.4-4-1.1-11.3-2l0.2-2.2c12.7,1.5,13.7,2.6,13.7,4C285.4,797.9,261.8,798.1,257.1,798.1z"/>
<path d="M257.1,807.9c-4.7,0-28.3-0.2-28.3-4.9c0-4.2,20-4.8,26.1-4.9v2.2c-13.3,0.1-21.9,1.6-23.7,2.7c2,1.2,11.5,2.7,25.9,2.7
	c13.4,0,22.7-1.3,25.4-2.5c-2.5-0.7-8.6-1.4-12.1-1.7l-2.3-0.2l0.2-2.2l2.2,0.2c13.3,1.5,14.8,2.2,14.8,3.7
	C285.4,807.7,261.8,807.9,257.1,807.9z"/>
<rect x="48.5" y="754.2" class="st4" width="1005" height="2"/>
<path class="st2" d="M104.9,177.2c-7.2,0-13.1-5.9-13.1-13.1s5.9-13.1,13.1-13.1S118,157,118,164.2S112.2,177.2,104.9,177.2z
	 M104.9,153.3c-6,0-10.9,4.9-10.9,10.9s4.9,10.9,10.9,10.9s10.9-4.9,10.9-10.9S111,153.3,104.9,153.3z"/>
<path class="st2" d="M152,517.6h-28.3v-28.3H152V517.6z M125.8,515.5h24v-24h-24V515.5z"/>
<path class="st2" d="M422.1,119.4l-18.8-21.1l21.1-18.8l18.8,21.1L422.1,119.4z M406.3,98.5l16,17.9l17.8-16l-16-17.9L406.3,98.5z"
	/>
<rect x="381.8" y="332.5" class="st1" width="273.4" height="124.2"/>
<path class="st0" d="M409.9,415.7c17.6-5.1,36.2-7,54.5-5.4c19,1.6,37.4,7.3,56.1,10.5c17.2,2.8,34.7,4.4,52.2,4.5
	c15.1,0.1,33.6,1.3,46.9-7c1.7-1.1,0.1-3.9-1.6-2.8c-7.7,4.8-16.7,5.6-25.6,6.1c-9,0.4-18,0.5-27,0.3c-18.2-0.5-36.4-2.6-54.2-6.1
	c-16.9-3.4-33.6-8-50.9-8.9c-17.3-1-34.6,1.1-51.3,5.9c-0.9,0.2-1.3,1.2-1.1,2.1C408.3,415.5,409.1,415.9,409.9,415.7L409.9,415.7z"
	/>
<path class="st0" d="M409.9,381.9c17.6-5.1,36.2-7,54.5-5.4c19,1.6,37.4,7.3,56.1,10.5c17.2,2.8,34.7,4.4,52.2,4.5
	c15.1,0.1,33.6,1.3,46.9-7c1.7-1.1,0.1-3.9-1.6-2.8c-7.7,4.8-16.7,5.6-25.6,6.1c-9,0.4-18,0.5-27,0.3c-18.2-0.5-36.4-2.6-54.2-6.1
	c-16.9-3.4-33.6-8-50.9-8.9c-17.3-1-34.6,1.1-51.3,5.9c-0.9,0.2-1.3,1.2-1.1,2.1C408.3,381.7,409.1,382.1,409.9,381.9L409.9,381.9z"
	/>
<path class="st5" d="M742.9,670.3V800c0,12.7-10.3,23.2-23.2,23.2l0,0H544.6L742.9,670.3z"/>
<path class="st5" d="M742.9,177.6v124L511.7,154.4h208.2C732.6,154.4,742.9,164.8,742.9,177.6L742.9,177.6z"/>
<circle class="st1" cx="732" cy="295.2" r="27.2"/>
<circle class="st6" cx="731.8" cy="294.3" r="8.4"/>
</svg>
